<svg width="155" height="151" viewBox="0 0 155 151" fill="none" xmlns="http://www.w3.org/2000/svg">
<g filter="url(#filter0_d_216_2)">
<path d="M151 0L128.133 143L26.8667 143L4 -6.42557e-06L151 0Z" fill="#EF7F1A" fill-opacity="0.75" shape-rendering="crispEdges"/>
</g>
<g filter="url(#filter1_d_216_2)">
<path d="M107.301 117.85C107.301 119.25 107.101 120.15 106.701 120.55C106.401 120.85 105.551 121 104.151 121H57.0506C55.6506 121 54.7506 120.85 54.3506 120.55C54.0506 120.15 53.9006 119.25 53.9006 117.85V106.3C53.9006 104.9 54.0506 104.05 54.3506 103.75C54.7506 103.45 55.6506 103.3 57.0506 103.3H70.5506V47.95L56.1506 55.9C55.1506 56.4 54.4506 56.65 54.0506 56.65C53.4506 56.65 52.8006 56.05 52.1006 54.85L46.5506 45.4C45.9506 44.4 45.6506 43.65 45.6506 43.15C45.6506 42.65 46.2506 42 47.4506 41.2L77.4506 20.65H90.8006C92.2006 20.65 93.0506 20.85 93.3506 21.25C93.6506 21.65 93.8006 22.5 93.8006 23.8V103.3H104.151C105.551 103.3 106.401 103.45 106.701 103.75C107.101 104.05 107.301 104.9 107.301 106.3V117.85Z" fill="white" fill-opacity="0.15" shape-rendering="crispEdges"/>
<path d="M106.701 120.55L105.993 119.843L105.993 119.843L106.701 120.55ZM54.3506 120.55L53.5506 121.15L53.6363 121.264L53.7506 121.35L54.3506 120.55ZM54.3506 103.75L53.7506 102.95L53.6937 102.993L53.6435 103.043L54.3506 103.75ZM70.5506 103.3V104.3H71.5506V103.3H70.5506ZM70.5506 47.95H71.5506V46.2556L70.0673 47.0746L70.5506 47.95ZM56.1506 55.9L56.5978 56.7944L56.616 56.7853L56.6339 56.7754L56.1506 55.9ZM52.1006 54.85L52.9644 54.3461L52.9629 54.3436L52.1006 54.85ZM46.5506 45.4L47.4129 44.8936L47.4081 44.8855L46.5506 45.4ZM47.4506 41.2L48.0053 42.0321L48.0157 42.025L47.4506 41.2ZM77.4506 20.65V19.65H77.1409L76.8855 19.825L77.4506 20.65ZM93.3506 21.25L94.1506 20.65L94.1506 20.65L93.3506 21.25ZM93.8006 103.3H92.8006V104.3H93.8006V103.3ZM106.701 103.75L105.993 104.457L106.044 104.507L106.101 104.55L106.701 103.75ZM106.301 117.85C106.301 118.51 106.253 119.006 106.174 119.358C106.136 119.532 106.093 119.655 106.055 119.737C106.017 119.82 105.991 119.845 105.993 119.843L107.408 121.257C107.802 120.862 108.009 120.322 108.127 119.792C108.249 119.244 108.301 118.59 108.301 117.85H106.301ZM105.993 119.843C106.076 119.76 106.059 119.833 105.664 119.903C105.321 119.963 104.823 120 104.151 120V122C104.878 122 105.505 121.962 106.012 121.872C106.467 121.792 107.025 121.64 107.408 121.257L105.993 119.843ZM104.151 120H57.0506V122H104.151V120ZM57.0506 120C56.3799 120 55.8651 119.964 55.49 119.901C55.3036 119.87 55.1671 119.835 55.0714 119.802C54.9729 119.768 54.9431 119.744 54.9506 119.75L53.7506 121.35C54.1454 121.646 54.6633 121.791 55.1612 121.874C55.6861 121.961 56.3213 122 57.0506 122V120ZM55.1506 119.95C55.1562 119.957 55.1328 119.928 55.0987 119.829C55.0656 119.734 55.0305 119.597 54.9995 119.411C54.937 119.036 54.9006 118.521 54.9006 117.85H52.9006C52.9006 118.579 52.9392 119.214 53.0267 119.739C53.1097 120.237 53.2545 120.755 53.5506 121.15L55.1506 119.95ZM54.9006 117.85V106.3H52.9006V117.85H54.9006ZM54.9006 106.3C54.9006 105.627 54.9373 105.13 54.9979 104.786C55.0676 104.391 55.1404 104.374 55.0577 104.457L53.6435 103.043C53.2607 103.426 53.1086 103.984 53.0283 104.439C52.9389 104.945 52.9006 105.573 52.9006 106.3H54.9006ZM54.9506 104.55C54.9431 104.556 54.9729 104.532 55.0714 104.498C55.1671 104.465 55.3036 104.43 55.49 104.399C55.8651 104.336 56.3799 104.3 57.0506 104.3V102.3C56.3213 102.3 55.6861 102.339 55.1612 102.426C54.6633 102.509 54.1454 102.654 53.7506 102.95L54.9506 104.55ZM57.0506 104.3H70.5506V102.3H57.0506V104.3ZM71.5506 103.3V47.95H69.5506V103.3H71.5506ZM70.0673 47.0746L55.6673 55.0246L56.6339 56.7754L71.0339 48.8254L70.0673 47.0746ZM55.7034 55.0056C55.2234 55.2456 54.8376 55.4142 54.5393 55.5208C54.3908 55.5738 54.2739 55.6078 54.1852 55.628C54.1415 55.6379 54.1082 55.6437 54.0842 55.6468C54.0599 55.65 54.0494 55.65 54.0506 55.65V57.65C54.4249 57.65 54.8301 57.5406 55.2119 57.4042C55.6136 57.2608 56.0778 57.0544 56.5978 56.7944L55.7034 55.0056ZM54.0506 55.65C54.0987 55.65 54.0178 55.6742 53.7914 55.4652C53.5686 55.2595 53.2894 54.9033 52.9644 54.3461L51.2368 55.3539C51.6118 55.9967 52.0076 56.5405 52.4348 56.9348C52.8584 57.3258 53.4024 57.65 54.0506 57.65V55.65ZM52.9629 54.3436L47.4129 44.8936L45.6883 45.9064L51.2383 55.3564L52.9629 54.3436ZM47.4081 44.8855C47.1246 44.413 46.9277 44.0252 46.8041 43.7161C46.6758 43.3954 46.6506 43.2185 46.6506 43.15H44.6506C44.6506 43.5815 44.7754 44.0296 44.9471 44.4589C45.1235 44.8998 45.3766 45.387 45.6931 45.9145L47.4081 44.8855ZM46.6506 43.15C46.6506 43.2845 46.5865 43.2354 46.8354 42.9658C47.0588 42.7238 47.4355 42.4119 48.0053 42.0321L46.8959 40.3679C46.2657 40.7881 45.7424 41.2012 45.3658 41.6092C45.0146 41.9896 44.6506 42.5154 44.6506 43.15H46.6506ZM48.0157 42.025L78.0157 21.475L76.8855 19.825L46.8855 40.375L48.0157 42.025ZM77.4506 21.65H90.8006V19.65H77.4506V21.65ZM90.8006 21.65C91.4637 21.65 91.9402 21.6984 92.259 21.7734C92.6097 21.8559 92.6135 21.9338 92.5506 21.85L94.1506 20.65C93.7877 20.1662 93.2165 19.9441 92.7171 19.8266C92.186 19.7016 91.5374 19.65 90.8006 19.65V21.65ZM92.5506 21.85C92.55 21.8492 92.5737 21.8817 92.6066 21.9731C92.6388 22.0626 92.6729 22.1893 92.7033 22.3613C92.7645 22.708 92.8006 23.1822 92.8006 23.8H94.8006C94.8006 23.1178 94.7617 22.517 94.6729 22.0137C94.5877 21.5312 94.4401 21.036 94.1506 20.65L92.5506 21.85ZM92.8006 23.8V103.3H94.8006V23.8H92.8006ZM93.8006 104.3H104.151V102.3H93.8006V104.3ZM104.151 104.3C104.823 104.3 105.321 104.337 105.664 104.397C106.059 104.467 106.076 104.54 105.993 104.457L107.408 103.043C107.025 102.66 106.467 102.508 106.012 102.428C105.505 102.338 104.878 102.3 104.151 102.3V104.3ZM106.101 104.55C106.017 104.487 106.095 104.491 106.177 104.842C106.252 105.16 106.301 105.637 106.301 106.3H108.301C108.301 105.563 108.249 104.915 108.124 104.383C108.007 103.884 107.784 103.313 107.301 102.95L106.101 104.55ZM106.301 106.3V117.85H108.301V106.3H106.301Z" fill="white"/>
</g>
<defs>
<filter id="filter0_d_216_2" x="0" y="0" width="155" height="151" filterUnits="userSpaceOnUse" color-interpolation-filters="sRGB">
<feFlood flood-opacity="0" result="BackgroundImageFix"/>
<feColorMatrix in="SourceAlpha" type="matrix" values="0 0 0 0 0 0 0 0 0 0 0 0 0 0 0 0 0 0 127 0" result="hardAlpha"/>
<feOffset dy="4"/>
<feGaussianBlur stdDeviation="2"/>
<feComposite in2="hardAlpha" operator="out"/>
<feColorMatrix type="matrix" values="0 0 0 0 0 0 0 0 0 0 0 0 0 0 0 0 0 0 0.25 0"/>
<feBlend mode="normal" in2="BackgroundImageFix" result="effect1_dropShadow_216_2"/>
<feBlend mode="normal" in="SourceGraphic" in2="effect1_dropShadow_216_2" result="shape"/>
</filter>
<filter id="filter1_d_216_2" x="45.6506" y="6.65039" width="98.6499" height="132.35" filterUnits="userSpaceOnUse" color-interpolation-filters="sRGB">
<feFlood flood-opacity="0" result="BackgroundImageFix"/>
<feColorMatrix in="SourceAlpha" type="matrix" values="0 0 0 0 0 0 0 0 0 0 0 0 0 0 0 0 0 0 127 0" result="hardAlpha"/>
<feOffset dx="21" dy="2"/>
<feGaussianBlur stdDeviation="8"/>
<feComposite in2="hardAlpha" operator="out"/>
<feColorMatrix type="matrix" values="0 0 0 0 0 0 0 0 0 0 0 0 0 0 0 0 0 0 0.25 0"/>
<feBlend mode="normal" in2="BackgroundImageFix" result="effect1_dropShadow_216_2"/>
<feBlend mode="normal" in="SourceGraphic" in2="effect1_dropShadow_216_2" result="shape"/>
</filter>
</defs>
</svg>
