<svg width="147" height="143" viewBox="0 0 147 143" fill="none" xmlns="http://www.w3.org/2000/svg">
<path d="M147 0L124.133 143L22.8667 143L0 -6.42557e-06L147 0Z" fill="#EF7F1A" fill-opacity="0.75"/>
<g filter="url(#filter0_d_216_3)">
<path d="M104.544 46.3C104.544 51.8 103.694 56.65 101.994 60.85C100.294 65.05 98.0436 68.65 95.2436 71.65C92.5436 74.55 88.6936 77.85 83.6936 81.55L76.1936 87.1C69.9936 91.7 66.4436 96.25 65.5436 100.75H100.794C102.094 100.75 102.944 100.95 103.344 101.35C103.744 101.65 103.944 102.45 103.944 103.75V117.85C103.944 119.25 103.744 120.15 103.344 120.55C103.044 120.85 102.244 121 100.944 121H42.2936C41.3936 121 40.7936 120.85 40.4936 120.55C40.1936 120.25 40.0436 119.55 40.0436 118.45V112.45C40.0436 104.05 41.7436 97.05 45.1436 91.45C48.5436 85.85 53.3436 80.55 59.5436 75.55C60.9436 74.45 62.8936 72.9 65.3936 70.9C67.9936 68.8 69.7436 67.35 70.6436 66.55C71.6436 65.75 72.9936 64.6 74.6936 63.1C76.4936 61.5 77.6936 60.3 78.2936 59.5C78.8936 58.6 79.5936 57.5 80.3936 56.2C81.1936 54.8 81.6936 53.45 81.8936 52.15C82.1936 50.85 82.3436 49.45 82.3436 47.95C82.3436 41.05 78.8436 37.6 71.8436 37.6C68.2436 37.6 65.3936 38.65 63.2936 40.75C61.2936 42.85 59.3936 46.05 57.5936 50.35C56.9936 51.75 56.1936 52.45 55.1936 52.45C55.0936 52.45 54.6436 52.35 53.8436 52.15L40.9436 47.35C39.8436 46.95 39.2936 46.25 39.2936 45.25C39.2936 42.85 40.7436 39.15 43.6436 34.15C49.7436 23.45 59.7436 18.1 73.6436 18.1C83.1436 18.1 90.6436 20.6 96.1436 25.6C101.744 30.6 104.544 37.5 104.544 46.3Z" fill="white" fill-opacity="0.15" shape-rendering="crispEdges"/>
<path d="M95.2436 71.65L94.5125 70.9677L94.5117 70.9686L95.2436 71.65ZM76.1936 87.1L75.5987 86.2962L75.5977 86.2969L76.1936 87.1ZM65.5436 100.75L64.563 100.554L64.3238 101.75H65.5436V100.75ZM103.344 101.35L102.636 102.057L102.687 102.107L102.744 102.15L103.344 101.35ZM103.344 120.55L102.636 119.843V119.843L103.344 120.55ZM59.5436 75.55L58.9257 74.7636L58.9158 74.7716L59.5436 75.55ZM65.3936 70.9L66.0183 71.6809L66.0219 71.6779L65.3936 70.9ZM70.6436 66.55L70.0189 65.7691L69.9986 65.7853L69.9792 65.8026L70.6436 66.55ZM74.6936 63.1L75.3552 63.8498L75.3579 63.8474L74.6936 63.1ZM78.2936 59.5L79.0936 60.1L79.1102 60.0778L79.1256 60.0547L78.2936 59.5ZM80.3936 56.2L81.2452 56.7241L81.2537 56.7103L81.2618 56.6961L80.3936 56.2ZM81.8936 52.15L80.9192 51.9251L80.9108 51.9613L80.9052 51.9979L81.8936 52.15ZM63.2936 40.75L62.5864 40.0429L62.5778 40.0515L62.5694 40.0603L63.2936 40.75ZM57.5936 50.35L58.5127 50.7439L58.516 50.7361L57.5936 50.35ZM53.8436 52.15L53.4948 53.0872L53.547 53.1066L53.601 53.1201L53.8436 52.15ZM40.9436 47.35L41.2923 46.4127L41.2853 46.4102L40.9436 47.35ZM43.6436 34.15L44.5086 34.6517L44.5123 34.6453L43.6436 34.15ZM96.1436 25.6L95.4709 26.34L95.4775 26.3459L96.1436 25.6ZM103.544 46.3C103.544 51.6982 102.709 56.4165 101.067 60.4748L102.921 61.2252C104.678 56.8835 105.544 51.9018 105.544 46.3H103.544ZM101.067 60.4748C99.4078 64.5731 97.2207 68.0661 94.5125 70.9677L95.9746 72.3323C98.8664 69.2339 101.179 65.5269 102.921 61.2252L101.067 60.4748ZM94.5117 70.9686C91.8701 73.8058 88.0738 77.0646 83.0987 80.7462L84.2884 82.3538C89.3133 78.6354 93.217 75.2942 95.9755 72.3314L94.5117 70.9686ZM83.0987 80.7462L75.5987 86.2962L76.7884 87.9038L84.2884 82.3538L83.0987 80.7462ZM75.5977 86.2969C69.3247 90.9511 65.5354 95.6916 64.563 100.554L66.5241 100.946C67.3517 96.8084 70.6624 92.4489 76.7894 87.9031L75.5977 86.2969ZM65.5436 101.75H100.794V99.75H65.5436V101.75ZM100.794 101.75C101.4 101.75 101.854 101.797 102.177 101.873C102.512 101.952 102.621 102.042 102.636 102.057L104.051 100.643C103.666 100.258 103.15 100.048 102.635 99.9266C102.108 99.8026 101.487 99.75 100.794 99.75V101.75ZM102.744 102.15C102.674 102.098 102.746 102.107 102.823 102.418C102.896 102.706 102.944 103.141 102.944 103.75H104.944C104.944 103.059 104.892 102.444 104.764 101.932C104.641 101.443 104.413 100.902 103.944 100.55L102.744 102.15ZM102.944 103.75V117.85H104.944V103.75H102.944ZM102.944 117.85C102.944 118.51 102.896 119.006 102.817 119.358C102.779 119.532 102.736 119.655 102.698 119.737C102.66 119.82 102.634 119.845 102.636 119.843L104.051 121.257C104.445 120.862 104.652 120.322 104.77 119.792C104.891 119.244 104.944 118.59 104.944 117.85H102.944ZM102.636 119.843C102.71 119.77 102.69 119.838 102.334 119.905C102.02 119.964 101.564 120 100.944 120V122C101.623 122 102.217 121.961 102.703 121.87C103.147 121.787 103.678 121.63 104.051 121.257L102.636 119.843ZM100.944 120H42.2936V122H100.944V120ZM42.2936 120C41.8918 120 41.6048 119.966 41.4111 119.917C41.2113 119.867 41.1768 119.819 41.2007 119.843L39.7864 121.257C40.1103 121.581 40.5258 121.758 40.926 121.858C41.3323 121.959 41.7953 122 42.2936 122V120ZM41.2007 119.843C41.2516 119.894 41.1932 119.867 41.1339 119.59C41.0792 119.336 41.0436 118.963 41.0436 118.45H39.0436C39.0436 119.037 39.0829 119.564 39.1783 120.01C39.2689 120.433 39.4356 120.906 39.7864 121.257L41.2007 119.843ZM41.0436 118.45V112.45H39.0436V118.45H41.0436ZM41.0436 112.45C41.0436 104.182 42.7166 97.3741 45.9983 91.969L44.2888 90.931C40.7705 96.7259 39.0436 103.918 39.0436 112.45H41.0436ZM45.9983 91.969C49.3269 86.4867 54.0426 81.2709 60.1713 76.3284L58.9158 74.7716C52.6445 79.8291 47.7602 85.2133 44.2888 90.931L45.9983 91.969ZM60.1614 76.3363C61.5648 75.2336 63.5175 73.6815 66.0182 71.6809L64.7689 70.1191C62.2697 72.1185 60.3223 73.6664 58.9257 74.7637L60.1614 76.3363ZM66.0219 71.6779C68.6199 69.5795 70.3877 68.1154 71.3079 67.2974L69.9792 65.8026C69.0994 66.5846 67.3672 68.0205 64.7652 70.1221L66.0219 71.6779ZM71.2682 67.3309C72.2868 66.516 73.6508 65.3537 75.3552 63.8498L74.0319 62.3502C72.3364 63.8463 71.0003 64.984 70.0189 65.7691L71.2682 67.3309ZM75.3579 63.8474C77.1577 62.2476 78.4269 60.9889 79.0936 60.1L77.4936 58.9C76.9602 59.6111 75.8294 60.7524 74.0292 62.3526L75.3579 63.8474ZM79.1256 60.0547C79.7344 59.1415 80.4412 58.0306 81.2452 56.7241L79.5419 55.6759C78.7459 56.9694 78.0527 58.0585 77.4615 58.9453L79.1256 60.0547ZM81.2618 56.6961C82.1093 55.213 82.6596 53.7471 82.8819 52.3021L80.9052 51.9979C80.7275 53.1529 80.2778 54.387 79.5253 55.7039L81.2618 56.6961ZM82.868 52.3749C83.1869 50.9927 83.3436 49.5165 83.3436 47.95H81.3436C81.3436 49.3835 81.2002 50.7073 80.9192 51.9251L82.868 52.3749ZM83.3436 47.95C83.3436 44.3422 82.4274 41.4535 80.4206 39.4753C78.4164 37.4998 75.4941 36.6 71.8436 36.6V38.6C75.193 38.6 77.5207 39.4252 79.0166 40.8997C80.5098 42.3715 81.3436 44.6578 81.3436 47.95H83.3436ZM71.8436 36.6C68.0384 36.6 64.9126 37.7168 62.5864 40.0429L64.0007 41.4571C65.8746 39.5832 68.4487 38.6 71.8436 38.6V36.6ZM62.5694 40.0603C60.4499 42.2858 58.4931 45.6114 56.6711 49.9639L58.516 50.7361C60.294 46.4886 62.1372 43.4142 64.0177 41.4397L62.5694 40.0603ZM56.6744 49.9561C56.138 51.2078 55.5995 51.45 55.1936 51.45V53.45C56.7876 53.45 57.8491 52.2922 58.5127 50.7439L56.6744 49.9561ZM55.1936 51.45C55.2721 51.45 55.3109 51.4618 55.2318 51.4474C55.1813 51.4382 55.1048 51.4225 54.998 51.3988C54.7857 51.3516 54.4831 51.2791 54.0861 51.1799L53.601 53.1201C54.004 53.2209 54.3264 53.2984 54.5641 53.3512C54.6823 53.3774 54.7871 53.3993 54.874 53.4151C54.9324 53.4257 55.065 53.45 55.1936 53.45V51.45ZM54.1923 51.2128L41.2923 46.4128L40.5948 48.2872L53.4948 53.0872L54.1923 51.2128ZM41.2853 46.4102C40.8566 46.2543 40.6211 46.0711 40.4924 45.9072C40.3728 45.755 40.2936 45.5551 40.2936 45.25H38.2936C38.2936 45.9449 38.4893 46.595 38.9197 47.1428C39.341 47.6789 39.9305 48.0457 40.6018 48.2898L41.2853 46.4102ZM40.2936 45.25C40.2936 44.2303 40.6067 42.8398 41.3121 41.0399C42.0124 39.253 43.0737 37.1257 44.5086 34.6517L42.7785 33.6483C41.3134 36.1743 40.1997 38.397 39.45 40.3101C38.7054 42.2102 38.2936 43.8697 38.2936 45.25H40.2936ZM44.5123 34.6453C50.4084 24.3029 60.0471 19.1 73.6436 19.1V17.1C59.44 17.1 49.0787 22.5971 42.7748 33.6547L44.5123 34.6453ZM73.6436 19.1C82.9663 19.1 90.2018 21.5498 95.4709 26.3399L96.8162 24.8601C91.0853 19.6502 83.3208 17.1 73.6436 17.1V19.1ZM95.4775 26.3459C100.828 31.1231 103.544 37.731 103.544 46.3H105.544C105.544 37.269 102.659 30.0769 96.8096 24.8541L95.4775 26.3459Z" fill="white"/>
</g>
<defs>
<filter id="filter0_d_216_3" x="39.2936" y="4.09961" width="102.25" height="134.9" filterUnits="userSpaceOnUse" color-interpolation-filters="sRGB">
<feFlood flood-opacity="0" result="BackgroundImageFix"/>
<feColorMatrix in="SourceAlpha" type="matrix" values="0 0 0 0 0 0 0 0 0 0 0 0 0 0 0 0 0 0 127 0" result="hardAlpha"/>
<feOffset dx="21" dy="2"/>
<feGaussianBlur stdDeviation="8"/>
<feComposite in2="hardAlpha" operator="out"/>
<feColorMatrix type="matrix" values="0 0 0 0 0 0 0 0 0 0 0 0 0 0 0 0 0 0 0.25 0"/>
<feBlend mode="normal" in2="BackgroundImageFix" result="effect1_dropShadow_216_3"/>
<feBlend mode="normal" in="SourceGraphic" in2="effect1_dropShadow_216_3" result="shape"/>
</filter>
</defs>
</svg>
