<svg width="147" height="143" viewBox="0 0 147 143" fill="none" xmlns="http://www.w3.org/2000/svg">
<path d="M147 0L124.133 143L22.8667 143L0 -6.42557e-06L147 0Z" fill="#EF7F1A" fill-opacity="0.75"/>
<g filter="url(#filter0_d_216_4)">
<path d="M105.997 91.75C105.997 101.15 102.547 108.8 95.6471 114.7C88.8471 120.5 80.0971 123.4 69.3971 123.4C64.7971 123.4 59.6471 122.75 53.9471 121.45C48.2471 120.25 43.4971 118.3 39.6971 115.6C38.8971 115.1 38.4971 114.6 38.4971 114.1C38.4971 113.7 38.5471 113.4 38.6471 113.2L42.8471 99.25C43.1471 98.45 43.5971 98.05 44.1971 98.05C44.4971 98.05 45.1471 98.3 46.1471 98.8C54.4471 102.8 61.5471 104.8 67.4471 104.8C77.5471 104.8 82.5971 100.15 82.5971 90.85C82.5971 86.25 81.2971 82.95 78.6971 80.95C76.1971 78.85 71.8471 77.8 65.6471 77.8H60.6971C59.2971 77.8 58.3971 77.65 57.9971 77.35C57.6971 76.95 57.5471 76.05 57.5471 74.65V62.2C57.5471 61 57.6971 60.2 57.9971 59.8C58.2971 59.4 58.9471 59.2 59.9471 59.2H60.6971L66.9971 59.35C75.8971 59.35 80.3471 55.2 80.3471 46.9C80.3471 43.8 79.3971 41.3 77.4971 39.4C75.5971 37.5 73.0471 36.55 69.8471 36.55C67.8471 36.55 65.8971 37 63.9971 37.9C62.1971 38.8 60.8471 39.7 59.9471 40.6C59.1471 41.4 57.9471 42.7 56.3471 44.5C56.1471 44.7 55.8971 45 55.5971 45.4C55.3971 45.8 55.1471 46.1 54.8471 46.3C54.6471 46.5 54.3971 46.6 54.0971 46.6C53.6971 46.6 53.3471 46.45 53.0471 46.15L41.9471 36.4C41.5471 36.1 41.3471 35.7 41.3471 35.2C41.3471 34.9 41.6971 34.15 42.3971 32.95C45.3971 28.15 49.3971 24.5 54.3971 22C59.3971 19.4 64.8471 18.1 70.7471 18.1C80.1471 18.1 87.7971 20.65 93.6971 25.75C99.5971 30.85 102.547 37.55 102.547 45.85C102.547 54.75 98.3471 61.8 89.9471 67C100.647 71.7 105.997 79.95 105.997 91.75Z" fill="white" fill-opacity="0.15" shape-rendering="crispEdges"/>
<path d="M95.6471 114.7L96.296 115.461L96.297 115.46L95.6471 114.7ZM53.9471 121.45L54.1694 120.475L54.1613 120.473L54.1531 120.471L53.9471 121.45ZM39.6971 115.6L40.2763 114.785L40.2522 114.768L40.2271 114.752L39.6971 115.6ZM38.6471 113.2L39.5415 113.647L39.5799 113.57L39.6046 113.488L38.6471 113.2ZM42.8471 99.25L41.9107 98.8989L41.8991 98.9299L41.8895 98.9617L42.8471 99.25ZM46.1471 98.8L45.6999 99.6944L45.7064 99.6977L45.7129 99.7008L46.1471 98.8ZM78.6971 80.95L78.0539 81.7157L78.0703 81.7295L78.0874 81.7426L78.6971 80.95ZM57.9971 77.35L57.1971 77.95L57.2828 78.0643L57.3971 78.15L57.9971 77.35ZM57.9971 59.8L57.1971 59.2L57.1971 59.2L57.9971 59.8ZM60.6971 59.2L60.7209 58.2003L60.709 58.2H60.6971V59.2ZM66.9971 59.35L66.9733 60.3497L66.9852 60.35H66.9971V59.35ZM63.9971 37.9L63.569 36.9963L63.5594 37.0008L63.5499 37.0056L63.9971 37.9ZM59.9471 40.6L59.24 39.8929L59.9471 40.6ZM56.3471 44.5L57.0542 45.2071L57.075 45.1863L57.0945 45.1644L56.3471 44.5ZM55.5971 45.4L54.7971 44.8L54.743 44.8721L54.7026 44.9528L55.5971 45.4ZM54.8471 46.3L54.2924 45.4679L54.21 45.5229L54.14 45.5929L54.8471 46.3ZM53.0471 46.15L53.7542 45.4429L53.7313 45.42L53.707 45.3987L53.0471 46.15ZM41.9471 36.4L42.607 35.6487L42.578 35.6232L42.5471 35.6L41.9471 36.4ZM42.3971 32.95L41.5491 32.42L41.541 32.4329L41.5333 32.4461L42.3971 32.95ZM54.3971 22L54.8443 22.8944L54.8514 22.8909L54.8584 22.8872L54.3971 22ZM93.6971 25.75L94.351 24.9935L93.6971 25.75ZM89.9471 67L89.4207 66.1497L87.8037 67.1507L89.5449 67.9156L89.9471 67ZM104.997 91.75C104.997 100.87 101.666 108.238 94.9972 113.94L96.297 115.46C103.428 109.362 106.997 101.43 106.997 91.75H104.997ZM94.9981 113.939C88.4132 119.556 79.9083 122.4 69.3971 122.4V124.4C80.2859 124.4 89.2809 121.444 96.296 115.461L94.9981 113.939ZM69.3971 122.4C64.8888 122.4 59.8151 121.763 54.1694 120.475L53.7247 122.425C59.479 123.737 64.7053 124.4 69.3971 124.4V122.4ZM54.1531 120.471C48.5549 119.293 43.9402 117.388 40.2763 114.785L39.1179 116.415C43.0539 119.212 47.9392 121.207 53.7411 122.429L54.1531 120.471ZM40.2271 114.752C39.8817 114.536 39.6826 114.356 39.5779 114.225C39.4794 114.102 39.4971 114.066 39.4971 114.1H37.4971C37.4971 115.162 38.3248 115.922 39.1671 116.448L40.2271 114.752ZM39.4971 114.1C39.4971 113.939 39.5073 113.821 39.521 113.739C39.535 113.655 39.5489 113.632 39.5415 113.647L37.7526 112.753C37.5482 113.162 37.4971 113.649 37.4971 114.1H39.4971ZM39.6046 113.488L43.8046 99.5383L41.8895 98.9617L37.6895 112.912L39.6046 113.488ZM43.7834 99.6011C43.8988 99.2935 44.0106 99.1537 44.0739 99.0974C44.1166 99.0595 44.1429 99.05 44.1971 99.05V97.05C43.6512 97.05 43.1526 97.2405 42.7452 97.6026C42.3585 97.9463 42.0954 98.4065 41.9107 98.8989L43.7834 99.6011ZM44.1971 99.05C44.1443 99.05 44.2284 99.0469 44.5506 99.1708C44.8332 99.2795 45.2137 99.4513 45.6999 99.6944L46.5943 97.9056C46.0805 97.6487 45.6359 97.4454 45.2685 97.3042C44.9408 97.1781 44.5499 97.05 44.1971 97.05V99.05ZM45.7129 99.7008C54.08 103.733 61.3358 105.8 67.4471 105.8V103.8C61.7583 103.8 54.8142 101.867 46.5812 97.8992L45.7129 99.7008ZM67.4471 105.8C72.6317 105.8 76.7066 104.608 79.4869 102.048C82.2829 99.4737 83.5971 95.6763 83.5971 90.85H81.5971C81.5971 95.3237 80.3863 98.5013 78.1322 100.577C75.8625 102.667 72.3625 103.8 67.4471 103.8V105.8ZM83.5971 90.85C83.5971 86.0719 82.2416 82.4149 79.3068 80.1574L78.0874 81.7426C80.3526 83.4851 81.5971 86.4281 81.5971 90.85H83.5971ZM79.3403 80.1843C76.557 77.8463 71.8985 76.8 65.6471 76.8V78.8C71.7957 78.8 75.8372 79.8536 78.0539 81.7157L79.3403 80.1843ZM65.6471 76.8H60.6971V78.8H65.6471V76.8ZM60.6971 76.8C60.0263 76.8 59.5115 76.7636 59.1365 76.7011C58.9501 76.67 58.8136 76.635 58.7179 76.6019C58.6193 76.5678 58.5896 76.5444 58.5971 76.55L57.3971 78.15C57.7919 78.4461 58.3098 78.5909 58.8077 78.6739C59.3326 78.7614 59.9678 78.8 60.6971 78.8V76.8ZM58.7971 76.75C58.8027 76.7575 58.7793 76.7277 58.7452 76.6291C58.7121 76.5335 58.677 76.397 58.646 76.2106C58.5835 75.8355 58.5471 75.3207 58.5471 74.65H56.5471C56.5471 75.3793 56.5857 76.0145 56.6732 76.5394C56.7562 77.0373 56.901 77.5552 57.1971 77.95L58.7971 76.75ZM58.5471 74.65V62.2H56.5471V74.65H58.5471ZM58.5471 62.2C58.5471 61.6357 58.5828 61.2023 58.6424 60.8843C58.7049 60.5513 58.7793 60.4236 58.7971 60.4L57.1971 59.2C56.9148 59.5764 56.7643 60.0487 56.6767 60.5157C56.5863 60.9977 56.5471 61.5643 56.5471 62.2H58.5471ZM58.7971 60.4C58.7818 60.4204 58.8092 60.3656 59.0037 60.3058C59.2 60.2454 59.5045 60.2 59.9471 60.2V58.2C59.3897 58.2 58.8691 58.2546 58.4155 58.3942C57.96 58.5344 57.5124 58.7796 57.1971 59.2L58.7971 60.4ZM59.9471 60.2H60.6971V58.2H59.9471V60.2ZM60.6733 60.1997L66.9733 60.3497L67.0209 58.3503L60.7209 58.2003L60.6733 60.1997ZM66.9971 60.35C71.5845 60.35 75.2114 59.2819 77.6916 56.9688C80.185 54.6435 81.3471 51.2227 81.3471 46.9H79.3471C79.3471 50.8773 78.2842 53.6815 76.3275 55.5062C74.3578 57.3431 71.3096 58.35 66.9971 58.35V60.35ZM81.3471 46.9C81.3471 43.5789 80.3208 40.8095 78.2042 38.6929L76.79 40.1071C78.4734 41.7905 79.3471 44.021 79.3471 46.9H81.3471ZM78.2042 38.6929C76.0814 36.5701 73.258 35.55 69.8471 35.55V37.55C72.8362 37.55 75.1127 38.4298 76.79 40.1071L78.2042 38.6929ZM69.8471 35.55C67.6914 35.55 65.5958 36.0362 63.569 36.9963L64.4252 38.8037C66.1984 37.9638 68.0027 37.55 69.8471 37.55V35.55ZM63.5499 37.0056C61.7028 37.9291 60.2469 38.8859 59.24 39.8929L60.6542 41.3071C61.4472 40.5141 62.6913 39.6709 64.4443 38.7944L63.5499 37.0056ZM59.24 39.8929C58.4179 40.7149 57.2016 42.0335 55.5997 43.8356L57.0945 45.1644C58.6926 43.3665 59.8762 42.0851 60.6542 41.3071L59.24 39.8929ZM55.64 43.7929C55.3905 44.0424 55.1075 44.3861 54.7971 44.8L56.3971 46C56.6867 45.6139 56.9037 45.3576 57.0542 45.2071L55.64 43.7929ZM54.7026 44.9528C54.562 45.2342 54.4166 45.3851 54.2924 45.4679L55.4018 47.1321C55.8775 46.8149 56.2322 46.3658 56.4915 45.8472L54.7026 44.9528ZM54.14 45.5929C54.1344 45.5985 54.132 45.5999 54.133 45.5992C54.1341 45.5985 54.1361 45.5973 54.1382 45.5965C54.1402 45.5957 54.1392 45.5964 54.1338 45.5974C54.1282 45.5984 54.1164 45.6 54.0971 45.6V47.6C54.6444 47.6 55.1544 47.4069 55.5542 47.0071L54.14 45.5929ZM54.0971 45.6C53.9796 45.6 53.8793 45.568 53.7542 45.4429L52.34 46.8571C52.8149 47.332 53.4145 47.6 54.0971 47.6V45.6ZM53.707 45.3987L42.607 35.6487L41.2871 37.1513L52.3871 46.9013L53.707 45.3987ZM42.5471 35.6C42.3989 35.4889 42.3471 35.3852 42.3471 35.2H40.3471C40.3471 36.0148 40.6953 36.7111 41.3471 37.2L42.5471 35.6ZM42.3471 35.2C42.3471 35.2878 42.328 35.307 42.3614 35.2068C42.3887 35.125 42.4374 35.0034 42.5158 34.8354C42.6721 34.5003 42.9174 34.0426 43.2608 33.4539L41.5333 32.4461C41.1767 33.0574 40.897 33.5747 40.7034 33.9896C40.6068 34.1966 40.5242 34.3938 40.464 34.5744C40.4099 34.7368 40.3471 34.9621 40.3471 35.2H42.3471ZM43.2451 33.48C46.1488 28.834 50.011 25.311 54.8443 22.8944L53.9499 21.1056C48.7831 23.6889 44.6453 27.466 41.5491 32.42L43.2451 33.48ZM54.8584 22.8872C59.7092 20.3648 64.9999 19.1 70.7471 19.1V17.1C64.6942 17.1 59.085 18.4352 53.9357 21.1128L54.8584 22.8872ZM70.7471 19.1C79.9585 19.1 87.3603 21.5943 93.0431 26.5065L94.351 24.9935C88.2338 19.7057 80.3356 17.1 70.7471 17.1V19.1ZM93.0431 26.5065C98.7078 31.4031 101.547 37.8193 101.547 45.85H103.547C103.547 37.2807 100.486 30.2969 94.351 24.9935L93.0431 26.5065ZM101.547 45.85C101.547 54.3605 97.5649 61.1081 89.4207 66.1497L90.4734 67.8503C99.1292 62.4919 103.547 55.1395 103.547 45.85H101.547ZM89.5449 67.9156C94.7504 70.2021 98.5955 73.3242 101.146 77.2566C103.696 81.1896 104.997 86.004 104.997 91.75H106.997C106.997 85.696 105.623 80.4854 102.824 76.1684C100.024 71.8508 95.8437 68.4979 90.3492 66.0844L89.5449 67.9156Z" fill="white"/>
</g>
<defs>
<filter id="filter0_d_216_4" x="38.4971" y="4.09961" width="104.5" height="137.301" filterUnits="userSpaceOnUse" color-interpolation-filters="sRGB">
<feFlood flood-opacity="0" result="BackgroundImageFix"/>
<feColorMatrix in="SourceAlpha" type="matrix" values="0 0 0 0 0 0 0 0 0 0 0 0 0 0 0 0 0 0 127 0" result="hardAlpha"/>
<feOffset dx="21" dy="2"/>
<feGaussianBlur stdDeviation="8"/>
<feComposite in2="hardAlpha" operator="out"/>
<feColorMatrix type="matrix" values="0 0 0 0 0 0 0 0 0 0 0 0 0 0 0 0 0 0 0.25 0"/>
<feBlend mode="normal" in2="BackgroundImageFix" result="effect1_dropShadow_216_4"/>
<feBlend mode="normal" in="SourceGraphic" in2="effect1_dropShadow_216_4" result="shape"/>
</filter>
</defs>
</svg>
