<svg width="149" height="143" viewBox="0 0 149 143" fill="none" xmlns="http://www.w3.org/2000/svg">
<path d="M147 0L124.133 143L22.8667 143L7.15256e-07 -6.42557e-06L147 0Z" fill="#EF7F1A" fill-opacity="0.75"/>
<g filter="url(#filter0_d_216_5)">
<path d="M111.144 99.1C111.144 100.4 110.994 101.25 110.694 101.65C110.394 102.05 109.544 102.25 108.144 102.25H100.044V120.55C100.044 121.95 99.8436 122.8 99.4436 123.1C99.1436 123.4 98.3436 123.55 97.0436 123.55H80.8436C79.4436 123.55 78.5436 123.4 78.1436 123.1C77.8436 122.8 77.6936 122 77.6936 120.7V102.25H39.4436C38.1436 102.25 37.2936 102.05 36.8936 101.65C36.4936 101.25 36.2936 100.4 36.2936 99.1V81.4L74.5436 19.3C75.4436 18 76.0936 17.35 76.4936 17.35C76.9936 17.35 77.6436 17.55 78.4436 17.95L93.2936 24.1C94.8936 24.8 95.6936 25.45 95.6936 26.05C95.6936 26.55 95.3436 27.3 94.6436 28.3L57.7436 83.35H78.1436L80.8436 61.9C80.9436 61 81.0436 60.35 81.1436 59.95C81.3436 59.55 81.5936 59.3 81.8936 59.2C82.2936 59 82.9436 58.9 83.8436 58.9H97.0436C98.3436 58.9 99.1436 59.1 99.4436 59.5C99.8436 59.9 100.044 60.75 100.044 62.05V83.65H108.144C109.544 83.65 110.394 83.85 110.694 84.25C110.994 84.65 111.144 85.7 111.144 87.4V99.1Z" fill="white" fill-opacity="0.15" shape-rendering="crispEdges"/>
<path d="M110.694 101.65L109.894 101.05L110.694 101.65ZM100.044 102.25V101.25H99.0436V102.25H100.044ZM99.4436 123.1L98.8436 122.3L98.7867 122.343L98.7365 122.393L99.4436 123.1ZM78.1436 123.1L77.4364 123.807L77.4867 123.857L77.5436 123.9L78.1436 123.1ZM77.6936 102.25H78.6936V101.25H77.6936V102.25ZM36.8936 101.65L37.6007 100.943L37.6007 100.943L36.8936 101.65ZM36.2936 81.4L35.4421 80.8756L35.2936 81.1167V81.4H36.2936ZM74.5436 19.3L73.7214 18.7308L73.7061 18.7528L73.6921 18.7756L74.5436 19.3ZM78.4436 17.95L77.9963 18.8444L78.0281 18.8603L78.0609 18.8739L78.4436 17.95ZM93.2936 24.1L93.6944 23.1838L93.6853 23.1799L93.6762 23.1761L93.2936 24.1ZM94.6436 28.3L93.8243 27.7265L93.8185 27.7348L93.8129 27.7432L94.6436 28.3ZM57.7436 83.35L56.9129 82.7932L55.8694 84.35H57.7436V83.35ZM78.1436 83.35V84.35H79.0256L79.1357 83.4749L78.1436 83.35ZM80.8436 61.9L81.8357 62.0249L81.8366 62.0177L81.8374 62.0104L80.8436 61.9ZM81.1436 59.95L80.2491 59.5028L80.2 59.601L80.1734 59.7075L81.1436 59.95ZM81.8936 59.2L82.2098 60.1487L82.2772 60.1262L82.3408 60.0944L81.8936 59.2ZM99.4436 59.5L98.6436 60.1L98.6862 60.1568L98.7365 60.2071L99.4436 59.5ZM100.044 83.65H99.0436V84.65H100.044V83.65ZM110.694 84.25L109.894 84.85V84.85L110.694 84.25ZM110.144 99.1C110.144 99.7178 110.107 100.192 110.046 100.539C110.016 100.711 109.982 100.837 109.95 100.927C109.917 101.018 109.893 101.051 109.894 101.05L111.494 102.25C111.783 101.864 111.931 101.369 112.016 100.886C112.105 100.383 112.144 99.7822 112.144 99.1H110.144ZM109.894 101.05C109.956 100.966 109.953 101.044 109.602 101.127C109.283 101.202 108.807 101.25 108.144 101.25V103.25C108.88 103.25 109.529 103.198 110.06 103.073C110.559 102.956 111.131 102.734 111.494 102.25L109.894 101.05ZM108.144 101.25H100.044V103.25H108.144V101.25ZM99.0436 102.25V120.55H101.044V102.25H99.0436ZM99.0436 120.55C99.0436 121.213 98.9952 121.69 98.9201 122.008C98.8376 122.359 98.7597 122.363 98.8436 122.3L100.044 123.9C100.527 123.537 100.749 122.966 100.867 122.467C100.992 121.935 101.044 121.287 101.044 120.55H99.0436ZM98.7365 122.393C98.8096 122.32 98.79 122.388 98.4343 122.455C98.1199 122.514 97.6636 122.55 97.0436 122.55V124.55C97.7235 124.55 98.3172 124.511 98.8028 124.42C99.2471 124.337 99.7775 124.18 100.151 123.807L98.7365 122.393ZM97.0436 122.55H80.8436V124.55H97.0436V122.55ZM80.8436 122.55C80.1728 122.55 79.658 122.514 79.283 122.451C79.0966 122.42 78.96 122.385 78.8644 122.352C78.7658 122.318 78.7361 122.294 78.7436 122.3L77.5436 123.9C77.9383 124.196 78.4563 124.341 78.9542 124.424C79.4791 124.511 80.1143 124.55 80.8436 124.55V122.55ZM78.8507 122.393C78.9238 122.466 78.8556 122.446 78.7889 122.091C78.73 121.776 78.6936 121.32 78.6936 120.7H76.6936C76.6936 121.38 76.7321 121.974 76.8232 122.459C76.9065 122.904 77.0633 123.434 77.4364 123.807L78.8507 122.393ZM78.6936 120.7V102.25H76.6936V120.7H78.6936ZM77.6936 101.25H39.4436V103.25H77.6936V101.25ZM39.4436 101.25C38.8371 101.25 38.3832 101.203 38.0601 101.127C37.7255 101.048 37.616 100.958 37.6007 100.943L36.1864 102.357C36.5711 102.742 37.0866 102.952 37.602 103.073C38.1289 103.197 38.75 103.25 39.4436 103.25V101.25ZM37.6007 100.943C37.5853 100.928 37.4957 100.818 37.417 100.483C37.341 100.16 37.2936 99.7065 37.2936 99.1H35.2936C35.2936 99.7935 35.3462 100.415 35.4701 100.942C35.5914 101.457 35.8018 101.972 36.1864 102.357L37.6007 100.943ZM37.2936 99.1V81.4H35.2936V99.1H37.2936ZM37.145 81.9244L75.395 19.8244L73.6921 18.7756L35.4421 80.8756L37.145 81.9244ZM75.3657 19.8692C75.8022 19.2388 76.1502 18.8076 76.4132 18.5446C76.5449 18.4129 76.6308 18.3483 76.673 18.3221C76.7253 18.2898 76.6547 18.35 76.4936 18.35V16.35C76.1325 16.35 75.8305 16.4915 75.6203 16.6216C75.4001 16.758 75.1922 16.9371 74.999 17.1304C74.6119 17.5174 74.1849 18.0612 73.7214 18.7308L75.3657 19.8692ZM76.4936 18.35C76.7599 18.35 77.242 18.4673 77.9963 18.8444L78.8908 17.0556C78.0451 16.6327 77.2272 16.35 76.4936 16.35V18.35ZM78.0609 18.8739L92.9109 25.0239L93.6762 23.1761L78.8262 17.0261L78.0609 18.8739ZM92.8927 25.0162C93.6588 25.3513 94.1647 25.6463 94.463 25.8886C94.791 26.1552 94.6936 26.2111 94.6936 26.05H96.6936C96.6936 25.2889 96.1961 24.7198 95.7242 24.3364C95.2224 23.9287 94.5283 23.5487 93.6944 23.1838L92.8927 25.0162ZM94.6936 26.05C94.6936 26.0884 94.6735 26.246 94.5249 26.5646C94.383 26.8686 94.1551 27.254 93.8243 27.7265L95.4628 28.8735C95.832 28.346 96.1291 27.8564 96.3372 27.4104C96.5386 26.979 96.6936 26.5116 96.6936 26.05H94.6936ZM93.8129 27.7432L56.9129 82.7932L58.5742 83.9068L95.4742 28.8568L93.8129 27.7432ZM57.7436 84.35H78.1436V82.35H57.7436V84.35ZM79.1357 83.4749L81.8357 62.0249L79.8514 61.7751L77.1514 83.2251L79.1357 83.4749ZM81.8374 62.0104C81.9369 61.1153 82.0312 60.5226 82.1137 60.1925L80.1734 59.7075C80.0559 60.1774 79.9502 60.8847 79.8497 61.7896L81.8374 62.0104ZM82.038 60.3972C82.1691 60.1351 82.2501 60.1352 82.2098 60.1487L81.5773 58.2513C80.937 58.4648 80.5181 58.9649 80.2491 59.5028L82.038 60.3972ZM82.3408 60.0944C82.5213 60.0042 82.9723 59.9 83.8436 59.9V57.9C82.9148 57.9 82.0659 57.9958 81.4463 58.3056L82.3408 60.0944ZM83.8436 59.9H97.0436V57.9H83.8436V59.9ZM97.0436 59.9C97.6529 59.9 98.0872 59.9479 98.376 60.0201C98.6867 60.0978 98.6959 60.1698 98.6436 60.1L100.244 58.9C99.8912 58.4301 99.3504 58.2022 98.8611 58.0799C98.3499 57.9521 97.7342 57.9 97.0436 57.9V59.9ZM98.7365 60.2071C98.7518 60.2225 98.8414 60.3319 98.9201 60.6665C98.9962 60.9896 99.0436 61.4435 99.0436 62.05H101.044C101.044 61.3565 100.991 60.7354 100.867 60.2085C100.746 59.6931 100.535 59.1775 100.151 58.7929L98.7365 60.2071ZM99.0436 62.05V83.65H101.044V62.05H99.0436ZM100.044 84.65H108.144V82.65H100.044V84.65ZM108.144 84.65C108.807 84.65 109.283 84.6984 109.602 84.7734C109.953 84.8559 109.956 84.9338 109.894 84.85L111.494 83.65C111.131 83.1662 110.559 82.9441 110.06 82.8266C109.529 82.7016 108.88 82.65 108.144 82.65V84.65ZM109.894 84.85C109.881 84.8327 109.969 84.9731 110.041 85.4789C110.107 85.9378 110.144 86.5728 110.144 87.4H112.144C112.144 86.5272 112.105 85.7872 112.021 85.1961C111.943 84.6519 111.807 84.0673 111.494 83.65L109.894 84.85ZM110.144 87.4V99.1H112.144V87.4H110.144Z" fill="white"/>
</g>
<defs>
<filter id="filter0_d_216_5" x="36.2936" y="3.34961" width="111.85" height="138.2" filterUnits="userSpaceOnUse" color-interpolation-filters="sRGB">
<feFlood flood-opacity="0" result="BackgroundImageFix"/>
<feColorMatrix in="SourceAlpha" type="matrix" values="0 0 0 0 0 0 0 0 0 0 0 0 0 0 0 0 0 0 127 0" result="hardAlpha"/>
<feOffset dx="21" dy="2"/>
<feGaussianBlur stdDeviation="8"/>
<feComposite in2="hardAlpha" operator="out"/>
<feColorMatrix type="matrix" values="0 0 0 0 0 0 0 0 0 0 0 0 0 0 0 0 0 0 0.25 0"/>
<feBlend mode="normal" in2="BackgroundImageFix" result="effect1_dropShadow_216_5"/>
<feBlend mode="normal" in="SourceGraphic" in2="effect1_dropShadow_216_5" result="shape"/>
</filter>
</defs>
</svg>
