<svg width="548" height="60" viewBox="0 0 548 60" fill="none" xmlns="http://www.w3.org/2000/svg">
<path d="M0.599063 30.8C0.599063 25.7333 1.4524 21.2267 3.15906 17.28C4.86573 13.3333 7.18573 10.1867 10.1191 7.84C13.0524 5.49333 16.2791 3.73333 19.7991 2.56C23.3191 1.38666 27.0257 0.799997 30.9191 0.799997C36.7857 0.799997 42.1991 1.97333 47.1591 4.32V18.32C43.5324 15.28 38.9724 13.76 33.4791 13.76C28.5724 13.76 24.3857 15.2 20.9191 18.08C17.5057 20.9067 15.7991 25.1467 15.7991 30.8C15.7991 35.8667 17.5057 39.7067 20.9191 42.32C24.3324 44.88 28.4657 46.16 33.3191 46.16C39.4524 46.16 44.1991 44.5333 47.5591 41.28V55.68C42.5991 58.0267 37.1591 59.2 31.2391 59.2C27.2391 59.2 23.4524 58.64 19.8791 57.52C16.3591 56.4 13.1324 54.7467 10.1991 52.56C7.26573 50.32 4.91906 47.3333 3.15906 43.6C1.4524 39.8667 0.599063 35.6 0.599063 30.8ZM65.7409 58H50.5409L72.5409 2H88.5409L110.541 58H95.3409L92.1409 49.2H68.9409L65.7409 58ZM79.1009 21.04L73.3409 37.2H87.7409L81.9809 21.04C81.3409 19.2267 80.8609 17.3333 80.5409 15.36C80.2209 17.3333 79.7409 19.2267 79.1009 21.04ZM104.938 2H151.338V15.2H135.578V58H120.778V15.2H104.938V2ZM157.694 2H198.014V14.8H172.494V23.36H195.614V36.08H172.494V45.2H198.494V58H157.694V2ZM221.869 58H207.069V2H230.669C233.709 2 236.509 2.32 239.069 2.96C241.682 3.54666 244.109 4.53333 246.349 5.92C248.642 7.25333 250.429 9.2 251.709 11.76C252.989 14.32 253.629 17.36 253.629 20.88C253.629 29.2 250.056 34.8 242.909 37.68L258.349 58H241.629L228.269 39.76H221.869V58ZM221.869 14.8V27.76H231.309C233.496 27.76 235.229 27.2 236.509 26.08C237.789 24.96 238.429 23.36 238.429 21.28C238.429 19.2 237.789 17.6 236.509 16.48C235.229 15.36 233.496 14.8 231.309 14.8H221.869ZM263.944 2H286.104C302.371 2 310.504 8.4 310.504 21.2C310.504 33.8933 302.371 40.2933 286.104 40.4H278.744V58H263.944V2ZM286.824 27.6C292.477 27.6 295.304 25.4667 295.304 21.2C295.304 16.9333 292.477 14.8 286.824 14.8H278.744V27.6H286.824ZM317.382 2H332.182V58H317.382V2ZM342.772 2H357.572V44.8H383.172V58H342.772V2ZM389.491 2H404.291V44.8H429.891V58H389.491V2ZM446.21 58H431.01L453.01 2H469.01L491.01 58H475.81L472.61 49.2H449.41L446.21 58ZM459.57 21.04L453.81 37.2H468.21L462.45 21.04C461.81 19.2267 461.33 17.3333 461.01 15.36C460.69 17.3333 460.21 19.2267 459.57 21.04ZM511.166 58H496.366V2H519.966C523.006 2 525.806 2.32 528.366 2.96C530.979 3.54666 533.406 4.53333 535.646 5.92C537.939 7.25333 539.726 9.2 541.006 11.76C542.286 14.32 542.926 17.36 542.926 20.88C542.926 29.2 539.353 34.8 532.206 37.68L547.646 58H530.926L517.566 39.76H511.166V58ZM511.166 14.8V27.76H520.606C522.793 27.76 524.526 27.2 525.806 26.08C527.086 24.96 527.726 23.36 527.726 21.28C527.726 19.2 527.086 17.6 525.806 16.48C524.526 15.36 522.793 14.8 520.606 14.8H511.166Z" fill="black"/>
</svg>
