<svg width="402" height="60" viewBox="0 0 402 60" fill="none" xmlns="http://www.w3.org/2000/svg">
<path d="M0.90375 30.8C0.90375 25.7333 1.75708 21.2267 3.46375 17.28C5.17042 13.3333 7.49042 10.1867 10.4238 7.84C13.3571 5.49333 16.5838 3.73333 20.1038 2.56C23.6238 1.38666 27.3304 0.799997 31.2238 0.799997C37.0904 0.799997 42.5038 1.97333 47.4638 4.32V18.32C43.8371 15.28 39.2771 13.76 33.7838 13.76C28.8771 13.76 24.6904 15.2 21.2238 18.08C17.8104 20.9067 16.1038 25.1467 16.1038 30.8C16.1038 35.8667 17.8104 39.7067 21.2238 42.32C24.6371 44.88 28.7704 46.16 33.6238 46.16C39.7571 46.16 44.5038 44.5333 47.8638 41.28V55.68C42.9038 58.0267 37.4638 59.2 31.5438 59.2C27.5438 59.2 23.7571 58.64 20.1838 57.52C16.6638 56.4 13.4371 54.7467 10.5038 52.56C7.57042 50.32 5.22375 47.3333 3.46375 43.6C1.75708 39.8667 0.90375 35.6 0.90375 30.8ZM91.0856 2H105.886V36.64C105.886 40.6933 105.166 44.24 103.726 47.28C102.286 50.2667 100.339 52.6133 97.8856 54.32C95.4323 55.9733 92.7656 57.2 89.8856 58C87.0056 58.8 83.939 59.2 80.6856 59.2C77.4323 59.2 74.3656 58.8 71.4856 58C68.6056 57.2 65.939 55.9733 63.4856 54.32C61.0323 52.6133 59.0856 50.2667 57.6456 47.28C56.2056 44.24 55.4856 40.6933 55.4856 36.64V2H70.2856V35.84C70.2856 42.6133 73.7523 46 80.6856 46C87.619 46 91.0856 42.6133 91.0856 35.84V2ZM163.969 2H177.969V58H163.169V28.24L151.169 46.64H142.689L130.689 28.16V58H115.889V2H129.889L146.929 28.24L163.969 2ZM236.626 2H250.626V58H235.826V28.24L223.826 46.64H215.346L203.346 28.16V58H188.546V2H202.546L219.586 28.24L236.626 2ZM261.202 2H276.002V58H261.202V2ZM334.673 2H348.673V58H333.873V28.24L321.873 46.64H313.393L301.393 28.16V58H286.592V2H300.593L317.633 28.24L334.673 2ZM357.249 17.28C357.249 11.9467 359.222 7.86666 363.169 5.04C367.169 2.21333 372.235 0.799997 378.369 0.799997C385.675 0.799997 391.942 2.29333 397.169 5.28V18.88C392.369 15.2533 386.502 13.4933 379.569 13.6C374.822 13.6533 372.449 14.8533 372.449 17.2C372.449 18.32 373.169 19.3333 374.609 20.24C376.049 21.0933 377.835 21.84 379.969 22.48C382.155 23.0667 384.502 23.8933 387.009 24.96C389.515 25.9733 391.835 27.12 393.969 28.4C396.155 29.68 397.969 31.52 399.409 33.92C400.849 36.2667 401.569 38.9867 401.569 42.08C401.569 53.4933 394.102 59.2 379.169 59.2C371.009 59.2 363.835 57.4933 357.649 54.08V40.08C363.782 44.2933 370.582 46.4 378.049 46.4C381.035 46.4 383.169 46.1333 384.449 45.6C385.729 45.0133 386.369 44.0267 386.369 42.64C386.369 41.2 385.355 39.9467 383.329 38.88C381.355 37.8133 378.929 36.8267 376.049 35.92C373.222 34.96 370.369 33.84 367.489 32.56C364.662 31.28 362.235 29.3333 360.209 26.72C358.235 24.1067 357.249 20.96 357.249 17.28Z" fill="black"/>
</svg>
