<svg width="349" height="60" viewBox="0 0 349 60" fill="none" xmlns="http://www.w3.org/2000/svg">
<path d="M0.56125 2H22.8813C32.5346 2 39.8146 4.53333 44.7213 9.6C49.6813 14.6667 52.1613 21.4667 52.1613 30C52.1613 38.5333 49.6813 45.3333 44.7213 50.4C39.8146 55.4667 32.5346 58 22.8813 58H0.56125V2ZM22.8813 45.2C32.2679 45.2 36.9613 40.1333 36.9613 30C36.9613 19.8667 32.2679 14.8 22.8813 14.8H15.3613V45.2H22.8813ZM65.1325 50.8C59.9058 45.2 57.2925 38.2667 57.2925 30C57.2925 21.7333 59.9058 14.8 65.1325 9.2C70.3592 3.6 77.7458 0.799997 87.2925 0.799997C96.8392 0.799997 104.226 3.6 109.453 9.2C114.679 14.8 117.293 21.7333 117.293 30C117.293 38.2667 114.679 45.2 109.453 50.8C104.226 56.4 96.8392 59.2 87.2925 59.2C77.7458 59.2 70.3592 56.4 65.1325 50.8ZM98.1725 41.28C100.786 38.4 102.093 34.64 102.093 30C102.093 25.36 100.786 21.6 98.1725 18.72C95.6125 15.84 91.9858 14.4 87.2925 14.4C82.5992 14.4 78.9458 15.84 76.3325 18.72C73.7725 21.6 72.4925 25.36 72.4925 30C72.4925 34.64 73.7725 38.4 76.3325 41.28C78.9458 44.16 82.5992 45.6 87.2925 45.6C91.9858 45.6 95.6125 44.16 98.1725 41.28ZM130.054 50.8C124.828 45.2 122.214 38.2667 122.214 30C122.214 21.7333 124.828 14.8 130.054 9.2C135.281 3.6 142.668 0.799997 152.214 0.799997C161.761 0.799997 169.148 3.6 174.374 9.2C179.601 14.8 182.214 21.7333 182.214 30C182.214 38.2667 179.601 45.2 174.374 50.8C169.148 56.4 161.761 59.2 152.214 59.2C142.668 59.2 135.281 56.4 130.054 50.8ZM163.094 41.28C165.708 38.4 167.014 34.64 167.014 30C167.014 25.36 165.708 21.6 163.094 18.72C160.534 15.84 156.908 14.4 152.214 14.4C147.521 14.4 143.868 15.84 141.254 18.72C138.694 21.6 137.414 25.36 137.414 30C137.414 34.64 138.694 38.4 141.254 41.28C143.868 44.16 147.521 45.6 152.214 45.6C156.908 45.6 160.534 44.16 163.094 41.28ZM187.936 17.28C187.936 11.9467 189.91 7.86666 193.856 5.04C197.856 2.21333 202.923 0.799997 209.056 0.799997C216.363 0.799997 222.63 2.29333 227.856 5.28V18.88C223.056 15.2533 217.19 13.4933 210.256 13.6C205.51 13.6533 203.136 14.8533 203.136 17.2C203.136 18.32 203.856 19.3333 205.296 20.24C206.736 21.0933 208.523 21.84 210.656 22.48C212.843 23.0667 215.19 23.8933 217.696 24.96C220.203 25.9733 222.523 27.12 224.656 28.4C226.843 29.68 228.656 31.52 230.096 33.92C231.536 36.2667 232.256 38.9867 232.256 42.08C232.256 53.4933 224.79 59.2 209.856 59.2C201.696 59.2 194.523 57.4933 188.336 54.08V40.08C194.47 44.2933 201.27 46.4 208.736 46.4C211.723 46.4 213.856 46.1333 215.136 45.6C216.416 45.0133 217.056 44.0267 217.056 42.64C217.056 41.2 216.043 39.9467 214.016 38.88C212.043 37.8133 209.616 36.8267 206.736 35.92C203.91 34.96 201.056 33.84 198.176 32.56C195.35 31.28 192.923 29.3333 190.896 26.72C188.923 24.1067 187.936 20.96 187.936 17.28ZM247.905 58H232.705L254.705 2H270.705L292.705 58H277.505L274.305 49.2H251.105L247.905 58ZM261.265 21.04L255.505 37.2H269.905L264.145 21.04C263.505 19.2267 263.025 17.3333 262.705 15.36C262.385 17.3333 261.905 19.2267 261.265 21.04ZM312.861 58H298.061V2H312.061L333.981 34.16C333.768 31.8133 333.661 28.72 333.661 24.88V2H348.461V58H334.461L312.541 25.92C312.755 28.2667 312.861 31.3333 312.861 35.12V58Z" fill="black"/>
</svg>
