<svg width="394" height="60" viewBox="0 0 394 60" fill="none" xmlns="http://www.w3.org/2000/svg">
<path d="M15.2128 58H0.412812V2H15.2128V23.2H22.2528L34.9728 2H51.3728L33.7728 29.28L52.1728 58H35.7728L22.1728 36.4H15.2128V58ZM59.1247 50.8C53.898 45.2 51.2847 38.2667 51.2847 30C51.2847 21.7333 53.898 14.8 59.1247 9.2C64.3514 3.6 71.738 0.799997 81.2847 0.799997C90.8314 0.799997 98.218 3.6 103.445 9.2C108.671 14.8 111.285 21.7333 111.285 30C111.285 38.2667 108.671 45.2 103.445 50.8C98.218 56.4 90.8314 59.2 81.2847 59.2C71.738 59.2 64.3514 56.4 59.1247 50.8ZM92.1647 41.28C94.778 38.4 96.0847 34.64 96.0847 30C96.0847 25.36 94.778 21.6 92.1647 18.72C89.6047 15.84 85.978 14.4 81.2847 14.4C76.5914 14.4 72.938 15.84 70.3247 18.72C67.7647 21.6 66.4847 25.36 66.4847 30C66.4847 34.64 67.7647 38.4 70.3247 41.28C72.938 44.16 76.5914 45.6 81.2847 45.6C85.978 45.6 89.6047 44.16 92.1647 41.28ZM167.087 2H181.087V58H166.287V28.24L154.287 46.64H145.807L133.807 28.16V58H119.007V2H133.007L150.047 28.24L167.087 2ZM201.663 58H186.463L208.463 2H224.463L246.463 58H231.263L228.063 49.2H204.863L201.663 58ZM215.023 21.04L209.263 37.2H223.663L217.903 21.04C217.263 19.2267 216.783 17.3333 216.463 15.36C216.143 17.3333 215.663 19.2267 215.023 21.04ZM240.86 2H287.26V15.2H271.5V58H256.7V15.2H240.86V2ZM291.616 17.28C291.616 11.9467 293.589 7.86666 297.536 5.04C301.536 2.21333 306.603 0.799997 312.736 0.799997C320.043 0.799997 326.309 2.29333 331.536 5.28V18.88C326.736 15.2533 320.869 13.4933 313.936 13.6C309.189 13.6533 306.816 14.8533 306.816 17.2C306.816 18.32 307.536 19.3333 308.976 20.24C310.416 21.0933 312.203 21.84 314.336 22.48C316.523 23.0667 318.869 23.8933 321.376 24.96C323.883 25.9733 326.203 27.12 328.336 28.4C330.523 29.68 332.336 31.52 333.776 33.92C335.216 36.2667 335.936 38.9867 335.936 42.08C335.936 53.4933 328.469 59.2 313.536 59.2C305.376 59.2 298.203 57.4933 292.016 54.08V40.08C298.149 44.2933 304.949 46.4 312.416 46.4C315.403 46.4 317.536 46.1333 318.816 45.6C320.096 45.0133 320.736 44.0267 320.736 42.64C320.736 41.2 319.723 39.9467 317.696 38.88C315.723 37.8133 313.296 36.8267 310.416 35.92C307.589 34.96 304.736 33.84 301.856 32.56C299.029 31.28 296.603 29.3333 294.576 26.72C292.603 24.1067 291.616 20.96 291.616 17.28ZM378.343 2H393.143V36.64C393.143 40.6933 392.423 44.24 390.983 47.28C389.543 50.2667 387.597 52.6133 385.143 54.32C382.69 55.9733 380.023 57.2 377.143 58C374.263 58.8 371.197 59.2 367.943 59.2C364.69 59.2 361.623 58.8 358.743 58C355.863 57.2 353.197 55.9733 350.743 54.32C348.29 52.6133 346.343 50.2667 344.903 47.28C343.463 44.24 342.743 40.6933 342.743 36.64V2H357.543V35.84C357.543 42.6133 361.01 46 367.943 46C374.877 46 378.343 42.6133 378.343 35.84V2Z" fill="black"/>
</svg>
