<svg width="179" height="60" viewBox="0 0 179 60" fill="none" xmlns="http://www.w3.org/2000/svg">
<path d="M8.39031 50.8C3.16365 45.2 0.550313 38.2667 0.550313 30C0.550313 21.7333 3.16365 14.8 8.39031 9.2C13.617 3.6 21.0036 0.799997 30.5503 0.799997C40.097 0.799997 47.4836 3.6 52.7103 9.2C57.937 14.8 60.5503 21.7333 60.5503 30C60.5503 38.2667 57.937 45.2 52.7103 50.8C47.4836 56.4 40.097 59.2 30.5503 59.2C21.0036 59.2 13.617 56.4 8.39031 50.8ZM41.4303 41.28C44.0436 38.4 45.3503 34.64 45.3503 30C45.3503 25.36 44.0436 21.6 41.4303 18.72C38.8703 15.84 35.2436 14.4 30.5503 14.4C25.857 14.4 22.2036 15.84 19.5903 18.72C17.0303 21.6 15.7503 25.36 15.7503 30C15.7503 34.64 17.0303 38.4 19.5903 41.28C22.2036 44.16 25.857 45.6 30.5503 45.6C35.2436 45.6 38.8703 44.16 41.4303 41.28ZM68.2722 2H108.672V15.2H83.0722V24.88H106.352V38.08H83.0722V58H68.2722V2ZM164.633 2H178.633V58H163.833V28.24L151.833 46.64H143.353L131.353 28.16V58H116.553V2H130.553L147.593 28.24L164.633 2Z" fill="black"/>
</svg>
