<svg width="358" height="60" viewBox="0 0 358 60" fill="none" xmlns="http://www.w3.org/2000/svg">
<path d="M0.545625 17.28C0.545625 11.9467 2.51896 7.86666 6.46563 5.04C10.4656 2.21333 15.5323 0.799997 21.6656 0.799997C28.9723 0.799997 35.239 2.29333 40.4656 5.28V18.88C35.6656 15.2533 29.799 13.4933 22.8656 13.6C18.119 13.6533 15.7456 14.8533 15.7456 17.2C15.7456 18.32 16.4656 19.3333 17.9056 20.24C19.3456 21.0933 21.1323 21.84 23.2656 22.48C25.4523 23.0667 27.799 23.8933 30.3056 24.96C32.8123 25.9733 35.1323 27.12 37.2656 28.4C39.4523 29.68 41.2656 31.52 42.7056 33.92C44.1456 36.2667 44.8656 38.9867 44.8656 42.08C44.8656 53.4933 37.399 59.2 22.4656 59.2C14.3056 59.2 7.13229 57.4933 0.945625 54.08V40.08C7.07896 44.2933 13.879 46.4 21.3456 46.4C24.3323 46.4 26.4656 46.1333 27.7456 45.6C29.0256 45.0133 29.6656 44.0267 29.6656 42.64C29.6656 41.2 28.6523 39.9467 26.6256 38.88C24.6523 37.8133 22.2256 36.8267 19.3456 35.92C16.519 34.96 13.6656 33.84 10.7856 32.56C7.95896 31.28 5.53229 29.3333 3.50563 26.72C1.53229 24.1067 0.545625 20.96 0.545625 17.28ZM87.8331 2H102.633V58H87.8331V36.64H67.0331V58H52.2331V2H67.0331V23.44H87.8331V2ZM123.171 58H107.971L129.971 2H145.971L167.971 58H152.771L149.571 49.2H126.371L123.171 58ZM136.531 21.04L130.771 37.2H145.171L139.411 21.04C138.771 19.2267 138.291 17.3333 137.971 15.36C137.651 17.3333 137.171 19.2267 136.531 21.04ZM188.127 58H173.327V2H187.327L209.247 34.16C209.034 31.8133 208.927 28.72 208.927 24.88V2H223.727V58H209.727L187.807 25.92C188.02 28.2667 188.127 31.3333 188.127 35.12V58ZM230.024 2H276.424V15.2H260.664V58H245.864V15.2H230.024V2ZM317.82 2H332.62V36.64C332.62 40.6933 331.9 44.24 330.46 47.28C329.02 50.2667 327.073 52.6133 324.62 54.32C322.167 55.9733 319.5 57.2 316.62 58C313.74 58.8 310.673 59.2 307.42 59.2C304.167 59.2 301.1 58.8 298.22 58C295.34 57.2 292.673 55.9733 290.22 54.32C287.767 52.6133 285.82 50.2667 284.38 47.28C282.94 44.24 282.22 40.6933 282.22 36.64V2H297.02V35.84C297.02 42.6133 300.487 46 307.42 46C314.353 46 317.82 42.6133 317.82 35.84V2ZM342.624 2H357.424V58H342.624V2Z" fill="black"/>
</svg>
