<svg width="277" height="60" viewBox="0 0 277 60" fill="none" xmlns="http://www.w3.org/2000/svg">
<path d="M36.8394 58H21.6394L0.599375 2H16.5994L29.2394 40.4L41.8794 2H57.8794L36.8394 58ZM65.6794 50.8C60.4527 45.2 57.8394 38.2667 57.8394 30C57.8394 21.7333 60.4527 14.8 65.6794 9.2C70.906 3.6 78.2927 0.799997 87.8394 0.799997C97.386 0.799997 104.773 3.6 109.999 9.2C115.226 14.8 117.839 21.7333 117.839 30C117.839 38.2667 115.226 45.2 109.999 50.8C104.773 56.4 97.386 59.2 87.8394 59.2C78.2927 59.2 70.906 56.4 65.6794 50.8ZM98.7194 41.28C101.333 38.4 102.639 34.64 102.639 30C102.639 25.36 101.333 21.6 98.7194 18.72C96.1594 15.84 92.5327 14.4 87.8394 14.4C83.146 14.4 79.4927 15.84 76.8794 18.72C74.3194 21.6 73.0394 25.36 73.0394 30C73.0394 34.64 74.3194 38.4 76.8794 41.28C79.4927 44.16 83.146 45.6 87.8394 45.6C92.5327 45.6 96.1594 44.16 98.7194 41.28ZM125.561 2H140.361V44.8H165.961V58H125.561V2ZM195.199 58H179.999L158.959 2H174.959L187.599 40.4L200.239 2H216.239L195.199 58ZM224.039 50.8C218.812 45.2 216.199 38.2667 216.199 30C216.199 21.7333 218.812 14.8 224.039 9.2C229.265 3.6 236.652 0.799997 246.199 0.799997C255.745 0.799997 263.132 3.6 268.359 9.2C273.585 14.8 276.199 21.7333 276.199 30C276.199 38.2667 273.585 45.2 268.359 50.8C263.132 56.4 255.745 59.2 246.199 59.2C236.652 59.2 229.265 56.4 224.039 50.8ZM257.079 41.28C259.692 38.4 260.999 34.64 260.999 30C260.999 25.36 259.692 21.6 257.079 18.72C254.519 15.84 250.892 14.4 246.199 14.4C241.505 14.4 237.852 15.84 235.239 18.72C232.679 21.6 231.399 25.36 231.399 30C231.399 34.64 232.679 38.4 235.239 41.28C237.852 44.16 241.505 45.6 246.199 45.6C250.892 45.6 254.519 44.16 257.079 41.28Z" fill="black"/>
</svg>
